<svg width="28" height="28" viewBox="0 0 28 28" fill="none" xmlns="http://www.w3.org/2000/svg">
<path d="M13.9988 27.3309C12.9735 27.3309 11.9495 26.9416 11.1668 26.1643L10.1935 25.1909C9.81614 24.8149 9.31081 24.6069 8.77481 24.6056H7.40547C5.19214 24.6056 3.39081 22.8043 3.39081 20.5909V19.2203C3.38947 18.6856 3.18147 18.1803 2.80414 17.8003L1.84681 16.8443C0.278805 15.2856 0.272139 12.7376 1.83214 11.1683L2.80547 10.1936C3.18147 9.81627 3.38947 9.31093 3.39081 8.77493V7.40693C3.39081 5.19227 5.19214 3.39093 7.40547 3.39093H8.77614C9.31081 3.39093 9.81481 3.18293 10.1948 2.80293L11.1535 1.84693C12.7121 0.278933 15.2588 0.270933 16.8295 1.83227L17.8028 2.8056C18.1815 3.18293 18.6855 3.39093 19.2201 3.39093H20.5908C22.8041 3.39093 24.6055 5.19227 24.6055 7.40693V8.77627C24.6068 9.31093 24.8148 9.81627 25.1921 10.1963L26.1495 11.1536C26.9081 11.9083 27.3281 12.9136 27.3321 13.9869C27.3348 15.0536 26.9241 16.0576 26.1761 16.8163C26.1628 16.8296 26.1508 16.8443 26.1375 16.8563L25.1908 17.8029C24.8148 18.1803 24.6068 18.6856 24.6055 19.2216V20.5909C24.6055 22.8043 22.8041 24.6056 20.5908 24.6056H19.2201C18.6855 24.6069 18.1801 24.8149 17.8015 25.1923L16.8428 26.1496C16.0615 26.9363 15.0295 27.3309 13.9988 27.3309" fill="#20da7d"/>
</svg>
