<svg width="64" height="64" viewBox="0 0 64 64" fill="none" xmlns="http://www.w3.org/2000/svg">
<circle cx="32" cy="32" r="32" fill="#09977C" fill-opacity="0.1"/>
<path fill-rule="evenodd" clip-rule="evenodd" d="M31.5649 47.8619C31.7421 47.9544 31.9402 48.0015 32.1384 47.9999C32.3365 47.9984 32.533 47.9497 32.7118 47.8556L38.4204 44.8039C40.0392 43.941 41.3069 42.9761 42.2959 41.8527C44.4463 39.4051 45.6206 36.2813 45.5996 33.0602L45.532 22.4352C45.5256 21.2114 44.7218 20.1194 43.533 19.7224L32.9131 16.1593C32.2737 15.9428 31.573 15.9475 30.9448 16.1703L20.3652 19.8605C19.1828 20.2731 18.3936 21.373 18.4 22.5983L18.4677 33.2155C18.4886 36.4413 19.7031 39.551 21.889 41.9735C22.8876 43.0812 24.1666 44.032 25.8032 44.8808L31.5649 47.8619ZM30.0537 35.3743C30.2921 35.6034 30.6014 35.7163 30.9106 35.7132C31.2199 35.7116 31.5276 35.5955 31.7627 35.3633L38.0013 29.213C38.47 28.7501 38.4652 28.0064 37.9916 27.5498C37.5164 27.0933 36.7513 27.0964 36.2826 27.5593L30.8929 32.8718L28.6861 30.7505C28.211 30.294 27.4475 30.2987 26.9771 30.7615C26.5084 31.2244 26.5132 31.9681 26.9884 32.4246L30.0537 35.3743Z" fill="#00F6FF"/>
</svg>
