<svg width="64" height="64" viewBox="0 0 64 64" fill="none" xmlns="http://www.w3.org/2000/svg">
<circle cx="32" cy="32" r="32" fill="#09977C" fill-opacity="0.1"/>
<path d="M45.4966 16.9312C44.6963 16.1098 43.5118 15.8037 42.4074 16.1259L16.6528 23.6152C15.4875 23.939 14.6616 24.8683 14.4391 26.0489C14.2118 27.2504 15.0057 28.7757 16.043 29.4135L24.0959 34.3629C24.9218 34.8702 25.9878 34.743 26.6713 34.0537L35.8927 24.7749C36.3569 24.2917 37.1252 24.2917 37.5894 24.7749C38.0536 25.242 38.0536 25.999 37.5894 26.4821L28.352 35.7625C27.6669 36.4503 27.5389 37.5213 28.0431 38.3524L32.9635 46.486C33.5397 47.4524 34.5321 48 35.6206 48C35.7486 48 35.8927 48 36.0207 47.9839C37.2693 47.8228 38.2617 46.9692 38.6298 45.7612L46.2649 20.0397C46.6011 18.9444 46.297 17.7526 45.4966 16.9312Z" fill="#00F6FF"/>
</svg>
